<svg width="777" height="181" viewBox="0 0 777 181" fill="none" xmlns="http://www.w3.org/2000/svg">
<path d="M0 2.51071H41.6769C55.904 2.51071 66.2813 5.85832 72.8091 12.5535C79.3368 19.0814 82.6006 29.2079 82.6006 42.9331V49.9631C82.6006 59.0017 81.0942 66.3664 78.0814 72.0574C75.236 77.7483 70.8005 81.8491 64.775 84.3598V84.862C78.4999 89.5486 85.3623 101.767 85.3623 121.518V136.583C85.3623 150.14 81.7637 160.518 74.5665 167.715C67.5367 174.745 57.1593 178.26 43.4344 178.26H0V2.51071ZM38.413 74.0659C43.9365 74.0659 48.0372 72.6432 50.7153 69.7977C53.5607 66.9523 54.9834 62.1819 54.9834 55.4867V45.6949C54.9834 39.3344 53.8117 34.7315 51.4685 31.886C49.2926 29.0405 45.7776 27.6178 40.9237 27.6178H27.6172V74.0659H38.413ZM43.4344 153.153C48.2883 153.153 51.8869 151.898 54.2302 149.387C56.5735 146.709 57.7451 142.19 57.7451 135.829V120.514C57.7451 112.48 56.3224 106.956 53.477 103.943C50.799 100.763 46.2798 99.173 39.9194 99.173H27.6172V153.153H43.4344Z" fill="white"/>
<path d="M101.505 2.51071H129.122V153.153H174.565V178.26H101.505V2.51071Z" fill="white"/>
<path d="M210.13 2.51071H247.539L276.16 178.26H248.543L243.522 143.362V143.864H212.139L207.117 178.26H181.509L210.13 2.51071ZM240.258 120.012L227.956 33.1414H227.454L215.403 120.012H240.258Z" fill="white"/>
<path d="M327.984 180.771C314.761 180.771 304.635 177.005 297.605 169.473C290.743 161.941 287.311 151.312 287.311 137.587V43.1842C287.311 29.459 290.743 18.8303 297.605 11.2982C304.635 3.76607 314.761 0 327.984 0C341.207 0 351.249 3.76607 358.112 11.2982C365.142 18.8303 368.657 29.459 368.657 43.1842V61.7635H342.546V41.4267C342.546 30.547 337.943 25.1071 328.737 25.1071C319.531 25.1071 314.929 30.547 314.929 41.4267V139.595C314.929 150.308 319.531 155.664 328.737 155.664C337.943 155.664 342.546 150.308 342.546 139.595V112.731H368.657V137.587C368.657 151.312 365.142 161.941 358.112 169.473C351.249 177.005 341.207 180.771 327.984 180.771Z" fill="white"/>
<path d="M385.18 2.51071H412.797V76.5766L447.946 2.51071H475.564L442.674 67.0359L476.066 178.26H447.193L423.844 99.9262L412.797 122.272V178.26H385.18V2.51071Z" fill="white"/>
<path d="M489.137 2.51071H530.814C545.041 2.51071 555.418 5.85832 561.946 12.5535C568.474 19.0814 571.737 29.2079 571.737 42.9331V49.9631C571.737 59.0017 570.231 66.3664 567.218 72.0574C564.373 77.7483 559.937 81.8491 553.912 84.3598V84.862C567.637 89.5486 574.499 101.767 574.499 121.518V136.583C574.499 150.14 570.9 160.518 563.703 167.715C556.673 174.745 546.296 178.26 532.571 178.26H489.137V2.51071ZM527.55 74.0659C533.073 74.0659 537.174 72.6432 539.852 69.7977C542.697 66.9523 544.12 62.1819 544.12 55.4867V45.6949C544.12 39.3344 542.948 34.7315 540.605 31.886C538.429 29.0405 534.914 27.6178 530.06 27.6178H516.754V74.0659H527.55ZM532.571 153.153C537.425 153.153 541.024 151.898 543.367 149.387C545.71 146.709 546.882 142.19 546.882 135.829V120.514C546.882 112.48 545.459 106.956 542.614 103.943C539.936 100.763 535.417 99.173 529.056 99.173H516.754V153.153H532.571Z" fill="white"/>
<path d="M630.561 180.771C617.004 180.771 606.626 176.921 599.429 169.222C592.232 161.522 588.633 150.643 588.633 136.583V44.1885C588.633 30.1285 592.232 19.2488 599.429 11.5493C606.626 3.84975 617.004 0 630.561 0C644.119 0 654.496 3.84975 661.693 11.5493C668.891 19.2488 672.489 30.1285 672.489 44.1885V136.583C672.489 150.643 668.891 161.522 661.693 169.222C654.496 176.921 644.119 180.771 630.561 180.771ZM630.561 155.664C640.102 155.664 644.872 149.889 644.872 138.34V42.431C644.872 30.8817 640.102 25.1071 630.561 25.1071C621.021 25.1071 616.25 30.8817 616.25 42.431V138.34C616.25 149.889 621.021 155.664 630.561 155.664Z" fill="white"/>
<path d="M711.597 88.377L681.218 2.51071H710.341L728.92 59.2527H729.422L748.503 2.51071H774.614L744.235 88.377L776.12 178.26H746.997L726.912 116.999H726.409L705.822 178.26H679.711L711.597 88.377Z" fill="white"/>
</svg>
